<mxfile host="app.diagrams.net" modified="2022-01-06T21:26:21.169Z" agent="5.0 (Macintosh; Intel Mac OS X 10_15_7) AppleWebKit/537.36 (KHTML, like Gecko) Chrome/96.0.4664.110 Safari/537.36" etag="7n0dW4bxhf19CCwvr2bn" version="16.2.1" type="github">
  <diagram id="YJDorFOKSxrE0az7E-os" name="Page-1">
    <mxGraphModel dx="1186" dy="518" grid="1" gridSize="10" guides="1" tooltips="1" connect="1" arrows="1" fold="1" page="1" pageScale="1" pageWidth="827" pageHeight="1169" math="0" shadow="0">
      <root>
        <mxCell id="0" />
        <mxCell id="1" parent="0" />
        <mxCell id="2qrkcXuvCPRG3PDcTXC0-2" value="Aluno" style="whiteSpace=wrap;html=1;align=center;" vertex="1" parent="1">
          <mxGeometry x="250" y="155" width="100" height="40" as="geometry" />
        </mxCell>
        <mxCell id="2qrkcXuvCPRG3PDcTXC0-3" value="" style="edgeStyle=orthogonalEdgeStyle;rounded=0;orthogonalLoop=1;jettySize=auto;html=1;entryX=0;entryY=0.5;entryDx=0;entryDy=0;" edge="1" parent="1" source="2qrkcXuvCPRG3PDcTXC0-4" target="2qrkcXuvCPRG3PDcTXC0-2">
          <mxGeometry relative="1" as="geometry">
            <mxPoint x="210" y="50" as="targetPoint" />
          </mxGeometry>
        </mxCell>
        <mxCell id="2qrkcXuvCPRG3PDcTXC0-4" value="id_aluno" style="ellipse;whiteSpace=wrap;html=1;align=center;" vertex="1" parent="1">
          <mxGeometry x="30" y="30" width="100" height="40" as="geometry" />
        </mxCell>
        <mxCell id="2qrkcXuvCPRG3PDcTXC0-5" value="" style="edgeStyle=orthogonalEdgeStyle;rounded=0;orthogonalLoop=1;jettySize=auto;html=1;entryX=0;entryY=0.5;entryDx=0;entryDy=0;" edge="1" parent="1" source="2qrkcXuvCPRG3PDcTXC0-6" target="2qrkcXuvCPRG3PDcTXC0-2">
          <mxGeometry relative="1" as="geometry">
            <mxPoint x="210" y="100" as="targetPoint" />
          </mxGeometry>
        </mxCell>
        <mxCell id="2qrkcXuvCPRG3PDcTXC0-6" value="nome" style="ellipse;whiteSpace=wrap;html=1;align=center;" vertex="1" parent="1">
          <mxGeometry x="30" y="80" width="100" height="40" as="geometry" />
        </mxCell>
        <mxCell id="2qrkcXuvCPRG3PDcTXC0-7" value="" style="edgeStyle=orthogonalEdgeStyle;rounded=0;orthogonalLoop=1;jettySize=auto;html=1;entryX=0;entryY=0.5;entryDx=0;entryDy=0;" edge="1" parent="1" source="2qrkcXuvCPRG3PDcTXC0-8" target="2qrkcXuvCPRG3PDcTXC0-2">
          <mxGeometry relative="1" as="geometry">
            <mxPoint x="210" y="150" as="targetPoint" />
          </mxGeometry>
        </mxCell>
        <mxCell id="2qrkcXuvCPRG3PDcTXC0-8" value="endereço" style="ellipse;whiteSpace=wrap;html=1;align=center;" vertex="1" parent="1">
          <mxGeometry x="30" y="130" width="100" height="40" as="geometry" />
        </mxCell>
        <mxCell id="2qrkcXuvCPRG3PDcTXC0-9" value="" style="edgeStyle=orthogonalEdgeStyle;rounded=0;orthogonalLoop=1;jettySize=auto;html=1;entryX=0;entryY=0.5;entryDx=0;entryDy=0;" edge="1" parent="1" source="2qrkcXuvCPRG3PDcTXC0-10" target="2qrkcXuvCPRG3PDcTXC0-2">
          <mxGeometry relative="1" as="geometry">
            <mxPoint x="210" y="200" as="targetPoint" />
          </mxGeometry>
        </mxCell>
        <mxCell id="2qrkcXuvCPRG3PDcTXC0-10" value="data_nascimento" style="ellipse;whiteSpace=wrap;html=1;align=center;" vertex="1" parent="1">
          <mxGeometry x="30" y="180" width="100" height="40" as="geometry" />
        </mxCell>
        <mxCell id="2qrkcXuvCPRG3PDcTXC0-11" value="" style="edgeStyle=orthogonalEdgeStyle;rounded=0;orthogonalLoop=1;jettySize=auto;html=1;entryX=0;entryY=0.5;entryDx=0;entryDy=0;" edge="1" parent="1" source="2qrkcXuvCPRG3PDcTXC0-12" target="2qrkcXuvCPRG3PDcTXC0-2">
          <mxGeometry relative="1" as="geometry">
            <mxPoint x="210" y="250" as="targetPoint" />
          </mxGeometry>
        </mxCell>
        <mxCell id="2qrkcXuvCPRG3PDcTXC0-12" value="e-mail" style="ellipse;whiteSpace=wrap;html=1;align=center;" vertex="1" parent="1">
          <mxGeometry x="30" y="230" width="100" height="40" as="geometry" />
        </mxCell>
        <mxCell id="2qrkcXuvCPRG3PDcTXC0-13" value="Curso" style="whiteSpace=wrap;html=1;align=center;" vertex="1" parent="1">
          <mxGeometry x="370" y="155" width="100" height="40" as="geometry" />
        </mxCell>
        <mxCell id="2qrkcXuvCPRG3PDcTXC0-16" value="" style="edgeStyle=orthogonalEdgeStyle;rounded=0;orthogonalLoop=1;jettySize=auto;html=1;entryX=1;entryY=0.5;entryDx=0;entryDy=0;" edge="1" parent="1" source="2qrkcXuvCPRG3PDcTXC0-17" target="2qrkcXuvCPRG3PDcTXC0-13">
          <mxGeometry relative="1" as="geometry" />
        </mxCell>
        <mxCell id="2qrkcXuvCPRG3PDcTXC0-17" value="nome" style="ellipse;whiteSpace=wrap;html=1;align=center;flipV=1;" vertex="1" parent="1">
          <mxGeometry x="556" y="131" width="100" height="40" as="geometry" />
        </mxCell>
        <mxCell id="2qrkcXuvCPRG3PDcTXC0-18" value="" style="edgeStyle=orthogonalEdgeStyle;rounded=0;orthogonalLoop=1;jettySize=auto;html=1;entryX=1;entryY=0.5;entryDx=0;entryDy=0;" edge="1" parent="1" source="2qrkcXuvCPRG3PDcTXC0-19" target="2qrkcXuvCPRG3PDcTXC0-13">
          <mxGeometry relative="1" as="geometry" />
        </mxCell>
        <mxCell id="2qrkcXuvCPRG3PDcTXC0-19" value="id_curso" style="ellipse;whiteSpace=wrap;html=1;align=center;flipV=1;" vertex="1" parent="1">
          <mxGeometry x="556" y="80" width="100" height="40" as="geometry" />
        </mxCell>
        <mxCell id="2qrkcXuvCPRG3PDcTXC0-20" value="" style="edgeStyle=orthogonalEdgeStyle;rounded=0;orthogonalLoop=1;jettySize=auto;html=1;entryX=1;entryY=0.5;entryDx=0;entryDy=0;" edge="1" parent="1" source="2qrkcXuvCPRG3PDcTXC0-21" target="2qrkcXuvCPRG3PDcTXC0-13">
          <mxGeometry relative="1" as="geometry">
            <mxPoint x="480" y="215" as="targetPoint" />
          </mxGeometry>
        </mxCell>
        <mxCell id="2qrkcXuvCPRG3PDcTXC0-21" value="turmas" style="ellipse;whiteSpace=wrap;html=1;align=center;flipV=1;" vertex="1" parent="1">
          <mxGeometry x="556" y="180" width="100" height="40" as="geometry" />
        </mxCell>
        <mxCell id="2qrkcXuvCPRG3PDcTXC0-22" value="" style="edgeStyle=orthogonalEdgeStyle;rounded=0;orthogonalLoop=1;jettySize=auto;html=1;entryX=0;entryY=0.5;entryDx=0;entryDy=0;" edge="1" parent="1" source="2qrkcXuvCPRG3PDcTXC0-23" target="2qrkcXuvCPRG3PDcTXC0-2">
          <mxGeometry relative="1" as="geometry">
            <mxPoint x="210" y="300" as="targetPoint" />
          </mxGeometry>
        </mxCell>
        <mxCell id="2qrkcXuvCPRG3PDcTXC0-23" value="curso" style="ellipse;whiteSpace=wrap;html=1;align=center;" vertex="1" parent="1">
          <mxGeometry x="30" y="280" width="100" height="40" as="geometry" />
        </mxCell>
        <mxCell id="2qrkcXuvCPRG3PDcTXC0-26" value="Certificado" style="whiteSpace=wrap;html=1;align=center;" vertex="1" parent="1">
          <mxGeometry x="240" y="450" width="100" height="40" as="geometry" />
        </mxCell>
        <mxCell id="2qrkcXuvCPRG3PDcTXC0-35" value="" style="edgeStyle=orthogonalEdgeStyle;rounded=0;orthogonalLoop=1;jettySize=auto;html=1;entryX=0;entryY=0.5;entryDx=0;entryDy=0;" edge="1" parent="1" source="2qrkcXuvCPRG3PDcTXC0-27" target="2qrkcXuvCPRG3PDcTXC0-26">
          <mxGeometry relative="1" as="geometry">
            <mxPoint x="220" y="470" as="targetPoint" />
          </mxGeometry>
        </mxCell>
        <mxCell id="2qrkcXuvCPRG3PDcTXC0-27" value="Aproveitamento projeto" style="ellipse;whiteSpace=wrap;html=1;align=center;" vertex="1" parent="1">
          <mxGeometry x="30" y="500" width="100" height="40" as="geometry" />
        </mxCell>
        <mxCell id="2qrkcXuvCPRG3PDcTXC0-34" value="" style="edgeStyle=orthogonalEdgeStyle;rounded=0;orthogonalLoop=1;jettySize=auto;html=1;" edge="1" parent="1" source="2qrkcXuvCPRG3PDcTXC0-28" target="2qrkcXuvCPRG3PDcTXC0-26">
          <mxGeometry relative="1" as="geometry" />
        </mxCell>
        <mxCell id="2qrkcXuvCPRG3PDcTXC0-28" value="Aproveitamento Qualified" style="ellipse;whiteSpace=wrap;html=1;align=center;" vertex="1" parent="1">
          <mxGeometry x="30" y="450" width="100" height="40" as="geometry" />
        </mxCell>
        <mxCell id="2qrkcXuvCPRG3PDcTXC0-33" value="" style="edgeStyle=orthogonalEdgeStyle;rounded=0;orthogonalLoop=1;jettySize=auto;html=1;entryX=0;entryY=0.5;entryDx=0;entryDy=0;" edge="1" parent="1" source="2qrkcXuvCPRG3PDcTXC0-29" target="2qrkcXuvCPRG3PDcTXC0-26">
          <mxGeometry relative="1" as="geometry" />
        </mxCell>
        <mxCell id="2qrkcXuvCPRG3PDcTXC0-29" value="Curso" style="ellipse;whiteSpace=wrap;html=1;align=center;" vertex="1" parent="1">
          <mxGeometry x="30" y="400" width="100" height="40" as="geometry" />
        </mxCell>
        <mxCell id="2qrkcXuvCPRG3PDcTXC0-32" value="" style="edgeStyle=orthogonalEdgeStyle;rounded=0;orthogonalLoop=1;jettySize=auto;html=1;entryX=0;entryY=0.5;entryDx=0;entryDy=0;" edge="1" parent="1" source="2qrkcXuvCPRG3PDcTXC0-30" target="2qrkcXuvCPRG3PDcTXC0-26">
          <mxGeometry relative="1" as="geometry">
            <mxPoint x="210" y="370" as="targetPoint" />
          </mxGeometry>
        </mxCell>
        <mxCell id="2qrkcXuvCPRG3PDcTXC0-30" value="Aluno" style="ellipse;whiteSpace=wrap;html=1;align=center;" vertex="1" parent="1">
          <mxGeometry x="30" y="350" width="100" height="40" as="geometry" />
        </mxCell>
        <mxCell id="2qrkcXuvCPRG3PDcTXC0-38" value="" style="edgeStyle=orthogonalEdgeStyle;rounded=0;orthogonalLoop=1;jettySize=auto;html=1;entryX=0;entryY=0.5;entryDx=0;entryDy=0;" edge="1" parent="1" source="2qrkcXuvCPRG3PDcTXC0-31" target="2qrkcXuvCPRG3PDcTXC0-26">
          <mxGeometry relative="1" as="geometry">
            <mxPoint x="210" y="570" as="targetPoint" />
          </mxGeometry>
        </mxCell>
        <mxCell id="2qrkcXuvCPRG3PDcTXC0-31" value="Frequência" style="ellipse;whiteSpace=wrap;html=1;align=center;" vertex="1" parent="1">
          <mxGeometry x="30" y="550" width="100" height="40" as="geometry" />
        </mxCell>
        <mxCell id="2qrkcXuvCPRG3PDcTXC0-40" value="Portais de comunicação com aluno" style="whiteSpace=wrap;html=1;align=center;" vertex="1" parent="1">
          <mxGeometry x="240" y="680" width="100" height="40" as="geometry" />
        </mxCell>
        <mxCell id="2qrkcXuvCPRG3PDcTXC0-49" value="" style="edgeStyle=orthogonalEdgeStyle;rounded=0;orthogonalLoop=1;jettySize=auto;html=1;entryX=0;entryY=0.5;entryDx=0;entryDy=0;" edge="1" parent="1" source="2qrkcXuvCPRG3PDcTXC0-47" target="2qrkcXuvCPRG3PDcTXC0-40">
          <mxGeometry relative="1" as="geometry">
            <mxPoint x="280" y="570" as="targetPoint" />
          </mxGeometry>
        </mxCell>
        <mxCell id="2qrkcXuvCPRG3PDcTXC0-47" value="Zoom" style="ellipse;whiteSpace=wrap;html=1;align=center;" vertex="1" parent="1">
          <mxGeometry x="30" y="630" width="100" height="40" as="geometry" />
        </mxCell>
        <mxCell id="2qrkcXuvCPRG3PDcTXC0-50" value="" style="edgeStyle=orthogonalEdgeStyle;rounded=0;orthogonalLoop=1;jettySize=auto;html=1;" edge="1" parent="1" source="2qrkcXuvCPRG3PDcTXC0-48" target="2qrkcXuvCPRG3PDcTXC0-40">
          <mxGeometry relative="1" as="geometry" />
        </mxCell>
        <mxCell id="2qrkcXuvCPRG3PDcTXC0-48" value="Discord" style="ellipse;whiteSpace=wrap;html=1;align=center;" vertex="1" parent="1">
          <mxGeometry x="30" y="680" width="100" height="40" as="geometry" />
        </mxCell>
        <mxCell id="2qrkcXuvCPRG3PDcTXC0-53" value="" style="edgeStyle=orthogonalEdgeStyle;rounded=0;orthogonalLoop=1;jettySize=auto;html=1;entryX=0;entryY=0.5;entryDx=0;entryDy=0;" edge="1" parent="1" source="2qrkcXuvCPRG3PDcTXC0-52" target="2qrkcXuvCPRG3PDcTXC0-40">
          <mxGeometry relative="1" as="geometry">
            <mxPoint x="210" y="750" as="targetPoint" />
          </mxGeometry>
        </mxCell>
        <mxCell id="2qrkcXuvCPRG3PDcTXC0-52" value="Portal resilia" style="ellipse;whiteSpace=wrap;html=1;align=center;" vertex="1" parent="1">
          <mxGeometry x="30" y="730" width="100" height="40" as="geometry" />
        </mxCell>
        <mxCell id="2qrkcXuvCPRG3PDcTXC0-61" value="" style="edgeStyle=orthogonalEdgeStyle;rounded=0;orthogonalLoop=1;jettySize=auto;html=1;entryX=1;entryY=0.5;entryDx=0;entryDy=0;" edge="1" parent="1" source="2qrkcXuvCPRG3PDcTXC0-56" target="2qrkcXuvCPRG3PDcTXC0-62">
          <mxGeometry relative="1" as="geometry">
            <mxPoint x="686" y="355" as="targetPoint" />
          </mxGeometry>
        </mxCell>
        <mxCell id="2qrkcXuvCPRG3PDcTXC0-56" value="conteúdos" style="ellipse;whiteSpace=wrap;html=1;align=center;flipV=1;" vertex="1" parent="1">
          <mxGeometry x="706" y="200.85" width="100" height="40" as="geometry" />
        </mxCell>
        <mxCell id="2qrkcXuvCPRG3PDcTXC0-63" value="" style="edgeStyle=orthogonalEdgeStyle;rounded=0;orthogonalLoop=1;jettySize=auto;html=1;entryX=1;entryY=0.5;entryDx=0;entryDy=0;" edge="1" parent="1" source="2qrkcXuvCPRG3PDcTXC0-62" target="2qrkcXuvCPRG3PDcTXC0-13">
          <mxGeometry relative="1" as="geometry">
            <mxPoint x="476" y="320" as="targetPoint" />
          </mxGeometry>
        </mxCell>
        <mxCell id="2qrkcXuvCPRG3PDcTXC0-62" value="ementa" style="ellipse;whiteSpace=wrap;html=1;align=center;flipV=1;" vertex="1" parent="1">
          <mxGeometry x="556" y="230" width="100" height="40" as="geometry" />
        </mxCell>
        <mxCell id="2qrkcXuvCPRG3PDcTXC0-68" value="" style="edgeStyle=orthogonalEdgeStyle;rounded=0;orthogonalLoop=1;jettySize=auto;html=1;entryX=1;entryY=0.5;entryDx=0;entryDy=0;" edge="1" parent="1" source="2qrkcXuvCPRG3PDcTXC0-64" target="2qrkcXuvCPRG3PDcTXC0-62">
          <mxGeometry relative="1" as="geometry">
            <mxPoint x="586" y="480" as="targetPoint" />
          </mxGeometry>
        </mxCell>
        <mxCell id="2qrkcXuvCPRG3PDcTXC0-64" value="materiais" style="ellipse;whiteSpace=wrap;html=1;align=center;flipV=1;" vertex="1" parent="1">
          <mxGeometry x="706" y="255.85" width="100" height="40" as="geometry" />
        </mxCell>
        <mxCell id="2qrkcXuvCPRG3PDcTXC0-73" value="Turma" style="whiteSpace=wrap;html=1;align=center;" vertex="1" parent="1">
          <mxGeometry x="370" y="445" width="100" height="40" as="geometry" />
        </mxCell>
        <mxCell id="2qrkcXuvCPRG3PDcTXC0-74" value="" style="edgeStyle=orthogonalEdgeStyle;rounded=0;orthogonalLoop=1;jettySize=auto;html=1;entryX=1;entryY=0.5;entryDx=0;entryDy=0;" edge="1" parent="1" source="2qrkcXuvCPRG3PDcTXC0-75" target="2qrkcXuvCPRG3PDcTXC0-73">
          <mxGeometry relative="1" as="geometry">
            <mxPoint x="480" y="475" as="targetPoint" />
          </mxGeometry>
        </mxCell>
        <mxCell id="2qrkcXuvCPRG3PDcTXC0-75" value="facilitadores" style="ellipse;whiteSpace=wrap;html=1;align=center;flipV=1;" vertex="1" parent="1">
          <mxGeometry x="556" y="422" width="100" height="40" as="geometry" />
        </mxCell>
        <mxCell id="2qrkcXuvCPRG3PDcTXC0-76" value="" style="edgeStyle=orthogonalEdgeStyle;rounded=0;orthogonalLoop=1;jettySize=auto;html=1;entryX=1;entryY=0.5;entryDx=0;entryDy=0;" edge="1" parent="1" source="2qrkcXuvCPRG3PDcTXC0-77" target="2qrkcXuvCPRG3PDcTXC0-73">
          <mxGeometry relative="1" as="geometry" />
        </mxCell>
        <mxCell id="2qrkcXuvCPRG3PDcTXC0-77" value="nome" style="ellipse;whiteSpace=wrap;html=1;align=center;flipV=1;" vertex="1" parent="1">
          <mxGeometry x="556" y="371" width="100" height="40" as="geometry" />
        </mxCell>
        <mxCell id="2qrkcXuvCPRG3PDcTXC0-78" value="" style="edgeStyle=orthogonalEdgeStyle;rounded=0;orthogonalLoop=1;jettySize=auto;html=1;entryX=1;entryY=0.5;entryDx=0;entryDy=0;" edge="1" parent="1" source="2qrkcXuvCPRG3PDcTXC0-79" target="2qrkcXuvCPRG3PDcTXC0-73">
          <mxGeometry relative="1" as="geometry" />
        </mxCell>
        <mxCell id="2qrkcXuvCPRG3PDcTXC0-79" value="id_turma" style="ellipse;whiteSpace=wrap;html=1;align=center;flipV=1;" vertex="1" parent="1">
          <mxGeometry x="556" y="320" width="100" height="40" as="geometry" />
        </mxCell>
        <mxCell id="2qrkcXuvCPRG3PDcTXC0-80" value="" style="edgeStyle=orthogonalEdgeStyle;rounded=0;orthogonalLoop=1;jettySize=auto;html=1;entryX=1;entryY=0.5;entryDx=0;entryDy=0;" edge="1" parent="1" source="2qrkcXuvCPRG3PDcTXC0-81" target="2qrkcXuvCPRG3PDcTXC0-73">
          <mxGeometry relative="1" as="geometry">
            <mxPoint x="480" y="505" as="targetPoint" />
          </mxGeometry>
        </mxCell>
        <mxCell id="2qrkcXuvCPRG3PDcTXC0-81" value="alunos" style="ellipse;whiteSpace=wrap;html=1;align=center;flipV=1;" vertex="1" parent="1">
          <mxGeometry x="556" y="473" width="100" height="40" as="geometry" />
        </mxCell>
        <mxCell id="2qrkcXuvCPRG3PDcTXC0-82" value="" style="edgeStyle=orthogonalEdgeStyle;rounded=0;orthogonalLoop=1;jettySize=auto;html=1;entryX=1;entryY=0.5;entryDx=0;entryDy=0;" edge="1" parent="1" source="2qrkcXuvCPRG3PDcTXC0-83" target="2qrkcXuvCPRG3PDcTXC0-73">
          <mxGeometry relative="1" as="geometry">
            <mxPoint x="480" y="540" as="targetPoint" />
          </mxGeometry>
        </mxCell>
        <mxCell id="2qrkcXuvCPRG3PDcTXC0-83" value="data de inicio" style="ellipse;whiteSpace=wrap;html=1;align=center;flipV=1;" vertex="1" parent="1">
          <mxGeometry x="556" y="524" width="100" height="40" as="geometry" />
        </mxCell>
        <mxCell id="2qrkcXuvCPRG3PDcTXC0-86" value="" style="edgeStyle=orthogonalEdgeStyle;rounded=0;orthogonalLoop=1;jettySize=auto;html=1;entryX=1;entryY=0.5;entryDx=0;entryDy=0;" edge="1" parent="1" source="2qrkcXuvCPRG3PDcTXC0-87" target="2qrkcXuvCPRG3PDcTXC0-73">
          <mxGeometry relative="1" as="geometry">
            <mxPoint x="476" y="610" as="targetPoint" />
          </mxGeometry>
        </mxCell>
        <mxCell id="2qrkcXuvCPRG3PDcTXC0-87" value="curso" style="ellipse;whiteSpace=wrap;html=1;align=center;flipV=1;" vertex="1" parent="1">
          <mxGeometry x="556" y="575" width="100" height="40" as="geometry" />
        </mxCell>
      </root>
    </mxGraphModel>
  </diagram>
</mxfile>
